<svg xmlns="http://www.w3.org/2000/svg" width="43.36" height="43.36" viewBox="0 0 43.36 43.36">
  <g id="Calque_2" data-name="Calque 2">
    <g id="Calque_1-2" data-name="Calque 1">
      <g id="InfoCercle">
        <path id="Tracé_713" data-name="Tracé 713" d="M21.68,25a1.84,1.84,0,0,1-1.84-1.83h0V12.9a1.84,1.84,0,0,1,3.68,0V23.19A1.83,1.83,0,0,1,21.68,25Z" style="fill: #ffffff"/>
        <path id="Tracé_714" data-name="Tracé 714" d="M21.68,32.34a1.85,1.85,0,0,1-1.84-1.84h0v-.86a1.84,1.84,0,0,1,3.68,0v.86a1.84,1.84,0,0,1-1.84,1.84Z" style="fill: #ffffff"/>
        <path id="Tracé_715" data-name="Tracé 715" d="M21.68,43.36A21.68,21.68,0,1,1,43.36,21.68,21.68,21.68,0,0,1,21.68,43.36Zm0-39.69a18,18,0,1,0,18,18h0A18,18,0,0,0,21.68,3.67Z" style="fill: #ffffff"/>
      </g>
    </g>
  </g>
</svg>
