<svg xmlns="http://www.w3.org/2000/svg" width="43.36" height="37.48" viewBox="0 0 43.36 37.48">
  <g id="Calque_2" data-name="Calque 2">
    <g id="Calque_1-2" data-name="Calque 1">
      <g id="Photo">
        <path id="Tracé_475" data-name="Tracé 475" d="M21.68,28.66A7.72,7.72,0,1,1,29.4,21h0A7.72,7.72,0,0,1,21.68,28.66Zm0-11.76a4,4,0,1,0,4,4.05h0A4,4,0,0,0,21.68,16.9Z" style="fill: #140a82"/>
        <path id="Tracé_476" data-name="Tracé 476" d="M35.64,37.48H7.72A7.72,7.72,0,0,1,0,29.77V12.13A7.72,7.72,0,0,1,7.72,4.41h4.66l1.53-3.34A1.84,1.84,0,0,1,15.58,0h12.2a1.84,1.84,0,0,1,1.67,1.07L31,4.41h4.66a7.72,7.72,0,0,1,7.72,7.72V29.77a7.72,7.72,0,0,1-7.72,7.71ZM7.72,8.08a4.06,4.06,0,0,0-4,4.05V29.77a4,4,0,0,0,4,4H35.64a4.06,4.06,0,0,0,4-4V12.13a4.07,4.07,0,0,0-4-4.05H29.76A1.84,1.84,0,0,1,28.1,7L26.6,3.68H16.76L15.23,7a1.83,1.83,0,0,1-1.66,1.07Z" style="fill: #140a82"/>
      </g>
    </g>
  </g>
</svg>
